<svg width="24" height="26" viewBox="0 0 24 26" fill="none" xmlns="http://www.w3.org/2000/svg">
<path d="M19.8798 19.8552C19.7845 19.3462 19.2946 19.011 18.7856 19.1064C18.2768 19.2018 17.9415 19.6916 18.0368 20.2005C18.1076 20.5781 17.9416 20.8471 17.8364 20.9739C17.7315 21.1003 17.4982 21.3125 17.1155 21.3125H2.88461C2.50188 21.3125 2.26863 21.1004 2.16368 20.9739C2.05849 20.8471 1.8925 20.5781 1.96328 20.2005C2.22921 18.7815 2.76278 17.8482 3.27878 16.9455C3.90546 15.8494 4.55346 14.7159 4.55346 12.9687V11.5625C4.55346 8.60619 6.95641 6.16845 9.91136 6.12556H10.0886C13.0336 6.16836 15.4285 8.60609 15.4285 11.5625V12.9688C15.4285 14.4558 15.9149 15.479 16.3709 16.3214C16.5406 16.6349 16.8631 16.8128 17.1962 16.8128C17.3469 16.8128 17.4998 16.7764 17.6416 16.6996C18.097 16.4532 18.2663 15.8842 18.0198 15.4289C17.5661 14.5907 17.3035 13.9194 17.3035 12.9688V11.5625C17.3035 9.63308 16.5562 7.81077 15.1991 6.43128C14.0361 5.24905 12.5428 4.51128 10.9285 4.30766V2.9375C10.9285 2.41972 10.5088 2 9.991 2C9.47322 2 9.0535 2.41972 9.0535 2.9375V4.31042C5.46953 4.77542 2.6785 7.86786 2.6785 11.5625V12.9688C2.6785 14.2178 2.22508 15.0109 1.65105 16.015C1.08555 17.0042 0.444535 18.1254 0.120347 19.8552C-0.0343872 20.6809 0.184519 21.5251 0.720957 22.1714C1.25688 22.8172 2.04555 23.1875 2.88461 23.1875H7.1966C7.1966 24.7383 8.45828 26 10.0091 26C11.5599 26 12.8216 24.7383 12.8216 23.1875H17.1155C17.9545 23.1875 18.7432 22.8172 19.2791 22.1714C19.8156 21.5252 20.0345 20.6809 19.8798 19.8552ZM10.0091 24.125C9.49216 24.125 9.0716 23.7044 9.0716 23.1875H10.9466C10.9466 23.7044 10.5261 24.125 10.0091 24.125Z" fill="#C8CFE2"/>
<circle cx="18" cy="6" r="5" fill="#FF427C" stroke="white" stroke-width="2"/>
</svg>
