<svg width="24" height="26" viewBox="0 0 24 26" fill="none" xmlns="http://www.w3.org/2000/svg">
<path d="M19.8803 19.8552C19.7849 19.3462 19.2951 19.011 18.7861 19.1064C18.2773 19.2018 17.942 19.6916 18.0373 20.2005C18.1081 20.5781 17.9421 20.8471 17.8369 20.9739C17.732 21.1003 17.4987 21.3125 17.116 21.3125H2.8851C2.50237 21.3125 2.26912 21.1004 2.16416 20.9739C2.05898 20.8471 1.89299 20.5781 1.96377 20.2005C2.22969 18.7815 2.76327 17.8482 3.27927 16.9455C3.90594 15.8494 4.55394 14.7159 4.55394 12.9687V11.5625C4.55394 8.60619 6.9569 6.16845 9.91185 6.12556H10.0891C13.0341 6.16836 15.429 8.60609 15.429 11.5625V12.9688C15.429 14.4558 15.9154 15.479 16.3714 16.3214C16.5411 16.6349 16.8636 16.8128 17.1966 16.8128C17.3474 16.8128 17.5003 16.7764 17.6421 16.6996C18.0974 16.4532 18.2668 15.8842 18.0203 15.4289C17.5666 14.5907 17.304 13.9194 17.304 12.9688V11.5625C17.304 9.63308 16.5567 7.81077 15.1996 6.43128C14.0366 5.24905 12.5433 4.51128 10.929 4.30766V2.9375C10.929 2.41972 10.5093 2 9.99149 2C9.47371 2 9.05399 2.41972 9.05399 2.9375V4.31042C5.47002 4.77542 2.67899 7.86786 2.67899 11.5625V12.9688C2.67899 14.2178 2.22557 15.0109 1.65154 16.015C1.08604 17.0042 0.445023 18.1254 0.120835 19.8552C-0.033899 20.6809 0.185007 21.5251 0.721445 22.1714C1.25737 22.8172 2.04604 23.1875 2.8851 23.1875H7.19708C7.19708 24.7383 8.45877 26 10.0096 26C11.5604 26 12.8221 24.7383 12.8221 23.1875H17.116C17.955 23.1875 18.7437 22.8172 19.2796 22.1714C19.8161 21.5252 20.035 20.6809 19.8803 19.8552ZM10.0096 24.125C9.49265 24.125 9.07208 23.7044 9.07208 23.1875H10.9471C10.9471 23.7044 10.5266 24.125 10.0096 24.125Z" fill="#C8CFE2"/>
<circle cx="18" cy="6" r="5" fill="#FF427C" stroke="white" stroke-width="2"/>
</svg>