<svg width="24" height="22" viewBox="0 0 24 22" fill="none" xmlns="http://www.w3.org/2000/svg">
    <path
        d="M22.6727 1.37305C21.8068 0.497467 20.7647 0.0358887 19.656 0.0358887C19.6388 0.0358887 19.6215 0.0359824 19.6042 0.0362168C18.5475 0.0499043 17.5107 0.498967 16.6849 1.30058L16.6771 1.30812L5.95653 12.2076C4.88388 13.2915 4.8836 14.8652 5.95587 15.9494C6.47585 16.4751 7.13918 16.7646 7.82375 16.7646H7.82408C8.51694 16.7646 9.18463 16.4751 9.70738 15.9463L17.1171 8.37641C17.4791 8.00652 17.4728 7.41317 17.1029 7.05106C16.733 6.689 16.1396 6.69533 15.7775 7.06522L8.37106 14.6318C8.2063 14.7984 8.012 14.8902 7.82375 14.8903C7.63854 14.8903 7.45845 14.8032 7.28848 14.6314C6.79512 14.1325 7.12432 13.6922 7.29078 13.524L17.9976 2.63848C19.0208 1.65139 20.3318 1.67169 21.34 2.69112C22.5352 3.89956 22.2099 5.30975 21.3574 6.17131C20.9933 6.53919 20.9964 7.13258 21.3643 7.4967C21.7323 7.86083 22.3256 7.85759 22.6897 7.48977C23.5122 6.65858 23.9772 5.60183 23.9988 4.51437C24.0214 3.37616 23.5505 2.26058 22.6727 1.37305Z"
        fill="#2960FF" />
    <path
        d="M19.7297 9.20301C19.358 8.84301 18.7646 8.85252 18.4045 9.22438L9.15411 18.7782C8.31668 19.6238 7.25716 20.0896 6.17022 20.0897H6.16966C5.0831 20.0897 4.05222 19.6282 3.18869 18.7551C1.16738 16.7114 1.73171 14.3111 3.18812 12.8381L12.4244 3.60387C12.7904 3.23792 12.7905 2.64452 12.4245 2.27848C12.0586 1.91243 11.4652 1.91238 11.0991 2.27834L1.86109 11.5143L1.85757 11.5179C0.699102 12.6885 0.0401319 14.1646 0.00183493 15.6743C-0.0389933 17.2842 0.602211 18.8053 1.85603 20.0731C3.06208 21.2926 4.59395 21.9641 6.16966 21.9641H6.1705C7.76351 21.9639 9.29768 21.2992 10.4904 20.0926L19.7511 10.5282C20.1112 10.1564 20.1016 9.56301 19.7297 9.20301Z"
        fill="#2960FF" />
</svg>