<svg width="18" height="18" viewBox="0 0 18 18" fill="none" xmlns="http://www.w3.org/2000/svg">
<path d="M17.2308 17.5522C16.4268 18.1926 15.2702 18.1274 14.5434 17.4006L0.599389 3.45668C-0.127409 2.72988 -0.19267 1.57325 0.447758 0.769318C1.19906 -0.173804 2.6039 -0.253069 3.45653 0.599552L17.4005 14.5435C18.2532 15.3961 18.1739 16.8009 17.2308 17.5522Z" fill="#677389"/>
<path d="M17.5522 0.769229C18.1926 1.57317 18.1274 2.7298 17.4006 3.45659L3.45657 17.4005C2.72977 18.1273 1.57313 18.1926 0.769189 17.5521C-0.173939 16.8008 -0.253205 15.396 0.599423 14.5434L14.5434 0.599463C15.3961 -0.253159 16.8009 -0.173892 17.5522 0.769229Z" fill="#677389"/>
</svg>
