<svg width="20" height="20" viewBox="0 0 20 20" fill="none" xmlns="http://www.w3.org/2000/svg">
<path d="M16.875 0.703125H3.125C1.40182 0.703125 0 2.10495 0 3.82812V14.7656C0 16.4888 1.40182 17.8906 3.125 17.8906H10.5266H10.528H10.5289H11.4062C11.8378 17.8906 12.1875 17.5409 12.1875 17.1094C12.1875 16.6779 11.8378 16.3281 11.4062 16.3281H10.9116L9.1153 13.9978L14.789 6.78131L18.3498 10.9744C18.4982 11.1493 18.716 11.25 18.9453 11.25H19.2188C19.6503 11.25 20 10.9003 20 10.4688V3.82812C20 2.10495 18.5982 0.703125 16.875 0.703125ZM18.4375 8.66379L15.3612 5.0412C15.2094 4.86237 14.9858 4.76059 14.7508 4.76578C14.5164 4.7702 14.2964 4.87976 14.1515 5.06409L8.13126 12.7213L6.08749 10.0699C5.93964 9.87808 5.71106 9.76562 5.46875 9.76562C5.4686 9.76562 5.46844 9.76562 5.46829 9.76562C5.22598 9.76578 4.99725 9.87839 4.84955 10.0706L3.13019 12.3058C2.86713 12.6477 2.93106 13.1383 3.27301 13.4013C3.61511 13.6644 4.10553 13.6005 4.36859 13.2584L5.46936 11.8274L8.93875 16.3281H3.125C2.26349 16.3281 1.5625 15.6271 1.5625 14.7656V3.82812C1.5625 2.96661 2.26349 2.26562 3.125 2.26562H16.875C17.7365 2.26562 18.4375 2.96661 18.4375 3.82812V8.66379ZM5.46875 3.51562C4.17633 3.51562 3.125 4.56696 3.125 5.85938C3.125 7.15179 4.17633 8.20312 5.46875 8.20312C6.76117 8.20312 7.8125 7.15179 7.8125 5.85938C7.8125 4.56696 6.76117 3.51562 5.46875 3.51562ZM5.46875 6.64062C5.03799 6.64062 4.6875 6.29013 4.6875 5.85938C4.6875 5.42862 5.03799 5.07812 5.46875 5.07812C5.89951 5.07812 6.25 5.42862 6.25 5.85938C6.25 6.29013 5.89951 6.64062 5.46875 6.64062ZM19.7713 13.99L17.7846 15.9766L19.7711 17.9631C20.0763 18.2683 20.0763 18.763 19.7711 19.068C19.6187 19.2206 19.4186 19.2969 19.2188 19.2969C19.0189 19.2969 18.8188 19.2206 18.6662 19.0681L16.6797 17.0815L14.6931 19.068C14.5406 19.2206 14.3405 19.2969 14.1406 19.2969C13.9407 19.2969 13.7407 19.2206 13.5881 19.0681C13.2831 18.763 13.2831 18.2683 13.5881 17.9633L15.5748 15.9766L13.5883 13.99C13.2831 13.6848 13.2831 13.1902 13.5883 12.8851C13.8933 12.58 14.388 12.58 14.6931 12.8851L16.6797 14.8717L18.6662 12.8851C18.9714 12.58 19.4661 12.58 19.7711 12.8851C20.0763 13.1902 20.0763 13.6848 19.7713 13.99Z" fill="#C8CFE2"/>
</svg>
