<svg width="24" height="20" viewBox="0 0 24 20" fill="none" xmlns="http://www.w3.org/2000/svg">
<path d="M23.7481 18.225C23.6337 19.236 22.7783 20 21.7608 20L2.23919 20C1.22167 20 0.366344 19.236 0.251884 18.225C0.117609 17.0389 1.04551 16 2.23919 16L21.7608 16C22.9545 16 23.8824 17.0389 23.7481 18.225Z" fill="#677389"/>
<path d="M23.8377 10.1505C23.759 11.1937 22.8896 12 21.8434 12L10.1566 12C9.11045 12 8.24104 11.1937 8.1623 10.1505C8.07471 8.98994 8.99276 8 10.1566 8L21.8434 8C23.0072 8 23.9253 8.98994 23.8377 10.1505Z" fill="#677389"/>
<path d="M23.7481 2.22498C23.6337 3.23604 22.7783 4 21.7608 4L2.23919 4C1.22167 4 0.366344 3.23604 0.251884 2.22498C0.117609 1.03888 1.04551 9.93965e-08 2.23919 -4.95829e-09L21.7608 -1.71159e-06C22.9545 -1.81595e-06 23.8824 1.03887 23.7481 2.22498Z" fill="#677389"/>
</svg>
