<svg width="24" height="24" viewBox="0 0 24 24" fill="none" xmlns="http://www.w3.org/2000/svg">
<path d="M16.8503 0H7.14973C3.20735 0 0 3.20735 0 7.14973V16.8503C0 20.7926 3.20735 24 7.14973 24H16.8503C20.7926 24 24 20.7926 24 16.8503V7.14973C24 3.20735 20.7926 0 16.8503 0ZM21.5856 16.8503C21.5856 19.4655 19.4655 21.5856 16.8503 21.5856H7.14973C4.5345 21.5856 2.4144 19.4655 2.4144 16.8503V7.14973C2.4144 4.53446 4.5345 2.4144 7.14973 2.4144H16.8503C19.4655 2.4144 21.5856 4.53446 21.5856 7.14973V16.8503Z" fill="url(#paint0_linear)"/>
<path d="M12.0002 5.79272C8.57754 5.79272 5.79297 8.57729 5.79297 11.9999C5.79297 15.4226 8.57754 18.2072 12.0002 18.2072C15.4229 18.2072 18.2075 15.4226 18.2075 11.9999C18.2075 8.57725 15.4229 5.79272 12.0002 5.79272ZM12.0002 15.7928C9.90547 15.7928 8.20737 14.0947 8.20737 12C8.20737 9.90523 9.90551 8.20712 12.0002 8.20712C14.095 8.20712 15.7931 9.90523 15.7931 12C15.7931 14.0947 14.0949 15.7928 12.0002 15.7928Z" fill="url(#paint1_linear)"/>
<path d="M18.2198 7.32683C19.0413 7.32683 19.7072 6.6609 19.7072 5.83944C19.7072 5.01798 19.0413 4.35205 18.2198 4.35205C17.3983 4.35205 16.7324 5.01798 16.7324 5.83944C16.7324 6.6609 17.3983 7.32683 18.2198 7.32683Z" fill="url(#paint2_linear)"/>
<defs>
<linearGradient id="paint0_linear" x1="12" y1="23.9301" x2="12" y2="0.186412" gradientUnits="userSpaceOnUse">
<stop stop-color="#E09B3D"/>
<stop offset="0.3" stop-color="#C74C4D"/>
<stop offset="0.6" stop-color="#C21975"/>
<stop offset="1" stop-color="#7024C4"/>
</linearGradient>
<linearGradient id="paint1_linear" x1="12.0002" y1="23.9301" x2="12.0002" y2="0.186392" gradientUnits="userSpaceOnUse">
<stop stop-color="#E09B3D"/>
<stop offset="0.3" stop-color="#C74C4D"/>
<stop offset="0.6" stop-color="#C21975"/>
<stop offset="1" stop-color="#7024C4"/>
</linearGradient>
<linearGradient id="paint2_linear" x1="18.2198" y1="23.9303" x2="18.2198" y2="0.18649" gradientUnits="userSpaceOnUse">
<stop stop-color="#E09B3D"/>
<stop offset="0.3" stop-color="#C74C4D"/>
<stop offset="0.6" stop-color="#C21975"/>
<stop offset="1" stop-color="#7024C4"/>
</linearGradient>
</defs>
</svg>
