<svg width="24" height="24" viewBox="0 0 24 24" fill="none" xmlns="http://www.w3.org/2000/svg">
<path d="M5.367 7.5H0V24H5.367V7.5Z" fill="#2C73AA"/>
<path d="M19.986 7.6935C19.929 7.6755 19.875 7.656 19.815 7.6395C19.743 7.623 19.671 7.6095 19.5975 7.5975C19.3125 7.5405 19.0005 7.5 18.6345 7.5C15.5055 7.5 13.521 9.7755 12.867 10.6545V7.5H7.5V24H12.867V15C12.867 15 16.923 9.351 18.6345 13.5C18.6345 17.2035 18.6345 24 18.6345 24H24V12.8655C24 10.3725 22.2915 8.295 19.986 7.6935Z" fill="#2C73AA"/>
<path d="M2.625 5.25C4.07475 5.25 5.25 4.07475 5.25 2.625C5.25 1.17525 4.07475 0 2.625 0C1.17525 0 0 1.17525 0 2.625C0 4.07475 1.17525 5.25 2.625 5.25Z" fill="#2C73AA"/>
</svg>
