<svg width="34" height="34" viewBox="0 0 34 34" fill="none" xmlns="http://www.w3.org/2000/svg">
<path d="M8.90129 33.2052C8.62711 33.2052 8.35007 33.1518 8.08574 33.0423C7.2886 32.7121 6.77344 31.9411 6.77344 31.0784V28.8203C6.77344 28.0146 6.11819 27.3594 5.3125 27.3594C2.3831 27.3594 0 24.9763 0 22.0469V6.10938C0 3.17998 2.3831 0.796875 5.3125 0.796875H28.6875C31.6169 0.796875 34 3.17998 34 6.10938V15.4062C34 16.1398 33.4055 16.7344 32.6719 16.7344C31.9383 16.7344 31.3438 16.1398 31.3438 15.4062V6.10938C31.3438 4.64481 30.1521 3.45312 28.6875 3.45312H5.3125C3.84793 3.45312 2.65625 4.64481 2.65625 6.10938V22.0469C2.65625 23.5114 3.84793 24.7031 5.3125 24.7031C7.58276 24.7031 9.42969 26.55 9.42969 28.8203V29.7975L12.3217 26.9054C13.7419 25.4852 15.6301 24.7031 17.6386 24.7031H28.6875C30.1521 24.7031 31.3438 23.5114 31.3438 22.0469C31.3438 21.3133 31.9383 20.7188 32.6719 20.7188C33.4055 20.7188 34 21.3133 34 22.0469C34 24.9763 31.6169 27.3594 28.6875 27.3594H17.6386C16.3396 27.3594 15.1186 27.8652 14.2 28.7837L10.4022 32.5816C9.99466 32.9891 9.45329 33.2052 8.90129 33.2052ZM27.3594 8.76562C27.3594 8.03204 26.7648 7.4375 26.0312 7.4375H7.96875C7.23517 7.4375 6.64062 8.03204 6.64062 8.76562C6.64062 9.49921 7.23517 10.0938 7.96875 10.0938H26.0312C26.7648 10.0938 27.3594 9.49921 27.3594 8.76562ZM27.3594 14.0781C27.3594 13.3445 26.7648 12.75 26.0312 12.75H7.96875C7.23517 12.75 6.64062 13.3445 6.64062 14.0781C6.64062 14.8117 7.23517 15.4062 7.96875 15.4062H26.0312C26.7648 15.4062 27.3594 14.8117 27.3594 14.0781ZM22.0469 19.3906C22.0469 18.657 21.4523 18.0625 20.7188 18.0625H7.96875C7.23517 18.0625 6.64062 18.657 6.64062 19.3906C6.64062 20.1242 7.23517 20.7188 7.96875 20.7188H20.7188C21.4523 20.7188 22.0469 20.1242 22.0469 19.3906Z" fill="#C8CFE2"/>
</svg>
