<svg width="360" height="64" viewBox="0 0 360 64" fill="none" xmlns="http://www.w3.org/2000/svg">
<rect width="360" height="64" fill="white"/>
<path d="M230.283 43.439C230.09 43.439 229.894 43.4012 229.708 43.324C229.145 43.0909 228.781 42.5467 228.781 41.9377V40.3438C228.781 39.775 228.319 39.3125 227.75 39.3125C225.682 39.3125 224 37.6303 224 35.5625V24.3125C224 22.2447 225.682 20.5625 227.75 20.5625H244.25C246.318 20.5625 248 22.2447 248 24.3125V30.875C248 31.3928 247.58 31.8125 247.062 31.8125C246.545 31.8125 246.125 31.3928 246.125 30.875V24.3125C246.125 23.2787 245.284 22.4375 244.25 22.4375H227.75C226.716 22.4375 225.875 23.2787 225.875 24.3125V35.5625C225.875 36.5963 226.716 37.4375 227.75 37.4375C229.353 37.4375 230.656 38.7412 230.656 40.3438V41.0335L232.698 38.9921C233.7 37.9896 235.033 37.4375 236.451 37.4375H244.25C245.284 37.4375 246.125 36.5963 246.125 35.5625C246.125 35.0447 246.545 34.625 247.062 34.625C247.58 34.625 248 35.0447 248 35.5625C248 37.6303 246.318 39.3125 244.25 39.3125H236.451C235.534 39.3125 234.672 39.6696 234.024 40.3179L231.343 42.9988C231.055 43.2864 230.673 43.439 230.283 43.439ZM243.312 26.1875C243.312 25.6697 242.893 25.25 242.375 25.25H229.625C229.107 25.25 228.688 25.6697 228.688 26.1875C228.688 26.7053 229.107 27.125 229.625 27.125H242.375C242.893 27.125 243.312 26.7053 243.312 26.1875ZM243.312 29.9375C243.312 29.4197 242.893 29 242.375 29H229.625C229.107 29 228.688 29.4197 228.688 29.9375C228.688 30.4553 229.107 30.875 229.625 30.875H242.375C242.893 30.875 243.312 30.4553 243.312 29.9375ZM239.562 33.6875C239.562 33.1697 239.143 32.75 238.625 32.75H229.625C229.107 32.75 228.688 33.1697 228.688 33.6875C228.688 34.2053 229.107 34.625 229.625 34.625H238.625C239.143 34.625 239.562 34.2053 239.562 33.6875Z" fill="#C8CFE2"/>
<circle cx="248" cy="24" r="5" fill="#FF427C" stroke="white" stroke-width="2"/>
</svg>
