<svg width="24" height="24" viewBox="0 0 24 24" fill="none" xmlns="http://www.w3.org/2000/svg">
    <path
        d="M23.3946 0.605781C22.8436 0.0542683 22.0405 -0.138908 21.2992 0.101876L1.42694 6.55157C0.647643 6.80462 0.106201 7.46764 0.0137332 8.28191C-0.0787349 9.09636 0.300659 9.86394 1.0036 10.2853C1.05707 10.3173 1.11365 10.3439 1.17261 10.3647L7.25719 12.5186V15.5019C7.25719 16.0198 7.67686 16.4394 8.19469 16.4394H11.3454L13.6276 22.8292C13.6481 22.8867 13.6743 22.9422 13.7058 22.9948C14.0846 23.6289 14.7449 24 15.4676 24C15.5469 24 15.6269 23.9956 15.7073 23.9865C16.5216 23.8947 17.1848 23.3535 17.4382 22.574L18.2521 20.0706C18.4121 19.5782 18.1426 19.0492 17.6502 18.8892C17.1579 18.729 16.6289 18.9985 16.4688 19.4909L15.6551 21.9943C15.6302 22.0708 15.5771 22.1142 15.4973 22.1232C15.4378 22.1301 15.3885 22.1146 15.3503 22.0776L13.0292 15.5794L17.5753 7.6925C17.7846 7.3294 17.7275 6.87127 17.4353 6.5708C17.143 6.27014 16.6867 6.20019 16.3178 6.39941L8.10753 10.8306L1.92169 8.64098C1.88525 8.60253 1.87005 8.55309 1.87683 8.4934C1.88598 8.4132 1.92938 8.35992 2.00573 8.3352L21.8779 1.88532C21.9505 1.86188 22.0145 1.87726 22.0686 1.93128C22.1228 1.98566 22.1383 2.0503 22.1145 2.12354L17.9937 14.8001C17.8335 15.2925 18.1031 15.8214 18.5954 15.9815C19.0878 16.1415 19.6168 15.872 19.7768 15.3796L23.8976 2.70325C24.1389 1.96112 23.9461 1.15748 23.3946 0.605781ZM11.4501 14.5644H9.13218V12.4084L14.3009 9.61858L11.4501 14.5644Z"
        fill="#2960FF" />
</svg>