<svg width="9" height="9" viewBox="0 0 9 9" fill="none" xmlns="http://www.w3.org/2000/svg">
<path d="M4.26549 0.830723L8.10127 0.832971C8.45342 0.83301 8.73906 1.11869 8.73915 1.47082L8.74131 5.30648L8.74131 5.30662L8.54348 5.30673C8.5438 5.54956 8.34692 5.74644 8.10391 5.74631L4.26549 0.830723ZM4.26549 0.830723C4.26547 0.830723 4.26545 0.830723 4.26543 0.830723H4.26549ZM1.9929 8.48138L7.46467 3.00959L4.26532 1.02855C4.14381 1.02845 4.03391 1.07764 3.95437 1.15717C3.87484 1.23671 3.82565 1.34662 3.82575 1.46812L3.62792 1.46817C3.62792 1.46821 3.62792 1.46825 3.62792 1.46829C3.62808 1.82034 3.91361 2.10591 4.26568 2.10601C4.26572 2.10601 4.26575 2.106 4.26578 2.10601L6.56252 2.10741L1.09074 7.57922C0.84168 7.82828 0.842086 8.23209 1.09107 8.48108C1.34005 8.73006 1.74383 8.73046 1.9929 8.48138Z" fill="#31DFAD" stroke="#31DFAD" stroke-width="0.4"/>
</svg>
