<svg width="24" height="24" viewBox="0 0 24 24" fill="none" xmlns="http://www.w3.org/2000/svg">
<path d="M23.3298 15.9477C23.7619 14.7108 23.9977 13.3825 23.9977 11.9999C23.9977 10.6174 23.7619 9.28906 23.3298 8.05214C23.3193 8.01498 23.3068 7.97875 23.2916 7.94388C21.6249 3.31719 17.1918 0 11.9979 0C6.80398 0 2.37074 3.31719 0.704122 7.94388C0.688984 7.97886 0.676369 8.01498 0.665934 8.05214C0.233826 9.28906 -0.00195312 10.6174 -0.00195312 11.9999C-0.00195312 13.3825 0.233826 14.7108 0.665934 15.9477C0.676484 15.9849 0.688984 16.0211 0.704122 16.056C2.37086 20.6828 6.80398 23.9999 11.9979 23.9999C17.1918 23.9999 21.6249 20.6827 23.2916 16.056C23.3068 16.0211 23.3193 15.985 23.3298 15.9477ZM11.9979 22.2798C11.5409 22.2798 10.8041 21.4528 10.1883 19.6051C9.891 18.7134 9.65305 17.6884 9.47965 16.5734H14.5161C14.3427 17.6884 14.1047 18.7133 13.8076 19.6051C13.1917 21.4528 12.4549 22.2798 11.9979 22.2798ZM9.27094 14.8533C9.18826 13.9361 9.14456 12.9792 9.14456 11.9999C9.14456 11.0207 9.18826 10.0638 9.27094 9.14663H14.7247C14.8074 10.0638 14.8511 11.0207 14.8511 11.9999C14.8511 12.9792 14.8074 13.9361 14.7247 14.8533H9.27094ZM1.71811 12.0001C1.71811 11.0104 1.85905 10.053 2.12132 9.14674H7.5456C7.46521 10.0829 7.42439 11.0423 7.42439 12.0001C7.42439 12.9579 7.4651 13.9172 7.5456 14.8534H2.12132C1.85905 13.947 1.71811 12.9897 1.71811 12.0001ZM11.9979 1.72018C12.4549 1.72018 13.1918 2.54724 13.8076 4.39493C14.1047 5.28656 14.3428 6.31155 14.5161 7.42646H9.47954C9.65293 6.31144 9.89089 5.28656 10.1881 4.39493C10.8041 2.54724 11.5409 1.72018 11.9979 1.72018ZM16.45 9.14674H21.8743C22.1366 10.053 22.2775 11.0104 22.2775 12.0001C22.2775 12.9897 22.1366 13.9471 21.8743 14.8534H16.45C16.5304 13.9172 16.5712 12.9579 16.5712 12.0001C16.5712 11.0423 16.5304 10.0829 16.45 9.14674ZM21.2022 7.42657H16.2527C15.9467 5.31683 15.4218 3.42407 14.6855 2.07751C17.5404 2.85148 19.9056 4.8275 21.2022 7.42657ZM9.31016 2.0774C8.57381 3.42395 8.04893 5.31672 7.74296 7.42657H2.79345C4.09011 4.8275 6.45524 2.85148 9.31016 2.0774ZM2.79345 16.5734H7.74296C8.04893 18.6832 8.57381 20.5759 9.31016 21.9226C6.45524 21.1485 4.09011 19.1726 2.79345 16.5734ZM14.6855 21.9226C15.4218 20.576 15.9467 18.6833 16.2527 16.5734H21.2022C19.9056 19.1726 17.5404 21.1485 14.6855 21.9226Z" fill="#2960FF"/>
</svg>
