<svg width="28" height="28" viewBox="0 0 28 28" fill="none" xmlns="http://www.w3.org/2000/svg">
    <path
        d="M17.5067 1.29441V0.487203C17.5068 0.421758 17.4937 0.356961 17.4682 0.296706C17.4426 0.23645 17.4052 0.181978 17.3581 0.136564C17.3109 0.0911494 17.2551 0.055729 17.194 0.0324306C17.1328 0.00913228 17.0676 -0.00156321 17.0022 0.000986731C14.3798 0.127617 11.8997 1.23103 10.0499 3.09414C8.20012 4.95724 7.11451 7.44515 7.00667 10.0684C7.01866 10.4095 7.29424 10.4985 7.45631 10.4985H8.27613C8.40094 10.4981 8.52087 10.4499 8.61121 10.3638C8.70155 10.2777 8.75542 10.1602 8.76172 10.0356C8.87632 7.87399 9.78724 5.83139 11.3188 4.30171C12.8503 2.77202 14.8941 1.86359 17.0558 1.75162C17.3976 1.7081 17.5067 1.52144 17.5067 1.29441ZM10.1283 10.5016H10.9103C11.0329 10.5009 11.1506 10.4538 11.2399 10.3698C11.3292 10.2858 11.3833 10.1711 11.3914 10.0488C11.5006 8.57623 12.1376 7.1925 13.1853 6.1519C14.2329 5.1113 15.6209 4.48373 17.0942 4.3845C17.21 4.37687 17.3181 4.32395 17.3952 4.23721C17.4723 4.15046 17.5121 4.03686 17.506 3.92099V3.11882C17.5059 3.05205 17.4921 2.98602 17.4654 2.92481C17.4388 2.8636 17.3998 2.80852 17.351 2.76299C17.3021 2.71747 17.2445 2.68246 17.1815 2.66014C17.1186 2.63781 17.0518 2.62866 16.9851 2.63324C15.0787 2.75943 13.283 3.57371 11.932 4.92463C10.581 6.27555 9.76655 8.07117 9.64019 9.97756C9.6357 10.0442 9.64494 10.1111 9.66733 10.174C9.68972 10.2369 9.7248 10.2946 9.77037 10.3434C9.81595 10.3922 9.87107 10.4312 9.93231 10.4579C9.99355 10.4845 10.0596 10.4984 10.1264 10.4985L10.1283 10.5016ZM17.5048 5.75486V6.55891C17.5048 6.88684 17.2197 7.0054 17.081 7.02179C16.3056 7.11654 15.5841 7.46758 15.031 8.01919C14.4779 8.5708 14.1249 9.29136 14.0281 10.0665C14.0143 10.1854 13.9573 10.2951 13.8681 10.3749C13.7789 10.4548 13.6635 10.4991 13.5438 10.4997H12.7624C12.6948 10.5 12.6279 10.4861 12.5659 10.459C12.5039 10.4319 12.4483 10.3921 12.4027 10.3422C12.357 10.2923 12.3223 10.2335 12.3007 10.1694C12.2792 10.1052 12.2712 10.0373 12.2775 9.96999C12.3997 8.76519 12.9341 7.6395 13.7903 6.78315C14.6465 5.92679 15.7722 5.39227 16.9769 5.2699C17.0443 5.26366 17.1122 5.27157 17.1763 5.29313C17.2404 5.31469 17.2993 5.34942 17.3492 5.39509C17.3991 5.44076 17.4389 5.49636 17.466 5.55832C17.4931 5.62028 17.507 5.68722 17.5067 5.75486H17.5048ZM26.7044 17.4846C26.4774 17.4846 26.2907 17.3749 26.2466 17.0337C26.1354 14.8714 25.2274 12.827 23.6978 11.2947C22.1682 9.76238 20.1253 8.85082 17.9633 8.73585C17.8386 8.7297 17.7211 8.67585 17.6351 8.58547C17.549 8.49508 17.501 8.37506 17.501 8.25026V7.43044C17.501 7.26837 17.5899 6.99279 17.9305 6.9808C20.5539 7.088 23.0423 8.17316 24.9059 10.0228C26.7695 11.8724 27.8734 14.3525 28.0004 16.975C28.0029 17.0404 27.9922 17.1057 27.9689 17.1668C27.9456 17.228 27.9102 17.2838 27.8648 17.3309C27.8194 17.378 27.7649 17.4155 27.7046 17.441C27.6444 17.4666 27.5796 17.4797 27.5142 17.4795L26.7044 17.4846ZM17.4972 10.1062C17.4973 10.0394 17.5111 9.9734 17.5378 9.91219C17.5645 9.85098 17.6035 9.79591 17.6523 9.75038C17.7011 9.70485 17.7588 9.66984 17.8217 9.64752C17.8847 9.6252 17.9515 9.61604 18.0181 9.62062C19.9251 9.74592 21.7216 10.5597 23.0734 11.9106C24.4252 13.2615 25.2402 15.0574 25.3669 16.9643C25.3714 17.0309 25.3623 17.0978 25.34 17.1607C25.3176 17.2236 25.2826 17.2813 25.2371 17.3301C25.1916 17.379 25.1365 17.4179 25.0753 17.4446C25.0141 17.4713 24.948 17.4851 24.8813 17.4852H24.0823C23.9664 17.4913 23.8528 17.4515 23.766 17.3744C23.6793 17.2973 23.6264 17.1892 23.6187 17.0734C23.5192 15.6001 22.8913 14.2121 21.8505 13.1646C20.8097 12.117 19.4258 11.4803 17.9532 11.3713C17.8309 11.3631 17.7163 11.3089 17.6324 11.2197C17.5485 11.1304 17.5015 11.0126 17.501 10.8901L17.4972 10.1062ZM22.2414 17.4846H21.4418C21.1133 17.4846 20.9953 17.1995 20.9783 17.0602C20.8834 16.2849 20.5323 15.5635 19.9807 15.0106C19.4291 14.4576 18.7086 14.1047 17.9336 14.0079C17.8147 13.9943 17.7049 13.9376 17.625 13.8484C17.5452 13.7593 17.5008 13.6439 17.5004 13.5242V12.7391C17.5001 12.6715 17.5139 12.6046 17.541 12.5427C17.5681 12.4808 17.6078 12.4252 17.6576 12.3796C17.7075 12.3339 17.7663 12.2992 17.8303 12.2776C17.8943 12.256 17.9622 12.248 18.0295 12.2541C19.2342 12.3762 20.3597 12.9105 21.216 13.7666C22.0723 14.6228 22.6067 15.7483 22.7289 16.953C22.7352 17.0202 22.7273 17.0879 22.7058 17.1519C22.6843 17.2159 22.6497 17.2747 22.6041 17.3245C22.5586 17.3743 22.5031 17.4141 22.4413 17.4412C22.3795 17.4684 22.3127 17.4823 22.2452 17.4821L22.2414 17.4846ZM1.29442 10.4966C1.52145 10.4966 1.70812 10.6057 1.75226 10.9468C1.86396 13.109 2.77243 15.1532 4.30241 16.685C5.83239 18.2169 7.87547 19.1278 10.0375 19.2422C10.162 19.2486 10.2794 19.3025 10.3653 19.3929C10.4513 19.4832 10.4994 19.603 10.4997 19.7277V20.5476C10.4997 20.7103 10.4108 20.9858 10.0703 20.9972C7.44692 20.89 4.95865 19.8049 3.09506 17.9555C1.23147 16.106 0.127504 13.6261 0.000368751 11.0036C-0.00218119 10.9382 0.0085143 10.873 0.0318127 10.8118C0.055111 10.7506 0.0905315 10.6948 0.135946 10.6477C0.181361 10.6006 0.235832 10.5631 0.296088 10.5376C0.356344 10.5121 0.42114 10.499 0.486585 10.4991L1.29442 10.4966ZM10.5016 17.8749C10.5015 17.9417 10.4877 18.0078 10.461 18.069C10.4344 18.1302 10.3954 18.1852 10.3466 18.2308C10.2977 18.2763 10.24 18.3113 10.1771 18.3336C10.1142 18.356 10.0473 18.3651 9.98073 18.3605C8.07419 18.2348 6.27821 17.4209 4.92681 16.0702C3.57541 14.7195 2.76058 12.9239 2.63388 11.0175C2.62921 10.9508 2.6383 10.884 2.66059 10.821C2.68287 10.758 2.71788 10.7003 2.76342 10.6514C2.80897 10.6026 2.86409 10.5636 2.92534 10.537C2.98659 10.5103 3.05267 10.4966 3.11947 10.4966H3.91848C4.03466 10.4905 4.14853 10.5306 4.23533 10.6081C4.32213 10.6855 4.37483 10.7941 4.38199 10.9103C4.48153 12.3836 5.10939 13.7715 6.15021 14.8191C7.19103 15.8666 8.5749 16.5034 10.0476 16.6124C10.1699 16.6204 10.2846 16.6745 10.3685 16.7639C10.4525 16.8532 10.4994 16.971 10.4997 17.0936L10.5016 17.8749ZM5.7574 10.4966H6.55893C6.88749 10.4966 7.00541 10.7816 7.02244 10.9204C7.11729 11.6957 7.46837 12.4171 8.01996 12.9702C8.57155 13.5233 9.29205 13.8763 10.0671 13.9732C10.1859 13.9868 10.2956 14.0435 10.3755 14.1325C10.4553 14.2215 10.4998 14.3367 10.5004 14.4563V15.2402C10.5006 15.3077 10.4868 15.3746 10.4597 15.4365C10.4326 15.4985 10.3929 15.554 10.3431 15.5997C10.2933 15.6453 10.2345 15.6801 10.1704 15.7017C10.1064 15.7233 10.0386 15.7313 9.97127 15.7251C8.76651 15.6028 7.64089 15.0684 6.78455 14.2122C5.92822 13.356 5.39366 12.2304 5.27118 11.0257C5.26503 10.9584 5.273 10.8906 5.29456 10.8267C5.31612 10.7627 5.35081 10.7039 5.3964 10.6541C5.442 10.6043 5.49749 10.5645 5.55932 10.5374C5.62116 10.5103 5.68798 10.4964 5.7555 10.4966H5.7574ZM10.5042 26.7038C10.5042 26.4767 10.6133 26.2901 10.9544 26.2466C13.1158 26.1348 15.1594 25.2268 16.691 23.6976C18.2226 22.1684 19.1339 20.1264 19.2491 17.9651C19.2554 17.8405 19.3093 17.723 19.3996 17.6369C19.49 17.5508 19.6099 17.5026 19.7347 17.5022H20.5545C20.7166 17.5022 20.9922 17.5912 21.0042 17.9323C20.8965 20.5556 19.811 23.0435 17.9613 24.9068C16.1117 26.77 13.6317 27.8736 11.0093 28.0003C10.9439 28.0029 10.8787 27.9922 10.8175 27.9689C10.7563 27.9456 10.7005 27.9102 10.6534 27.8648C10.6063 27.8194 10.5688 27.7649 10.5433 27.7046C10.5177 27.6444 10.5046 27.5796 10.5048 27.5141L10.5042 26.7038ZM17.8825 17.4966C17.9493 17.4967 18.0153 17.5105 18.0765 17.5372C18.1378 17.5638 18.1928 17.6028 18.2384 17.6516C18.2839 17.7005 18.3189 17.7582 18.3412 17.8211C18.3635 17.884 18.3727 17.9509 18.3681 18.0175C18.2431 19.9249 17.4292 21.7219 16.0781 23.0739C14.7269 24.426 12.9305 25.2411 11.0232 25.3675C10.9565 25.372 10.8897 25.3629 10.8268 25.3406C10.7638 25.3182 10.7062 25.2832 10.6573 25.2377C10.6085 25.1922 10.5695 25.1371 10.5429 25.0759C10.5162 25.0147 10.5024 24.9486 10.5023 24.8819V24.0829C10.4962 23.967 10.536 23.8534 10.6131 23.7666C10.6902 23.6799 10.7983 23.627 10.9141 23.6194C12.3874 23.5201 13.7754 22.8926 14.823 21.852C15.8707 20.8114 16.5077 19.4276 16.6169 17.955C16.625 17.8327 16.6791 17.718 16.7684 17.634C16.8577 17.55 16.9754 17.5029 17.098 17.5022L17.8825 17.4966ZM10.5042 22.2402V21.4418C10.5042 21.1139 10.7898 20.9953 10.9286 20.9789C11.7039 20.8842 12.4255 20.5331 12.9785 19.9815C13.5316 19.4299 13.8846 18.7093 13.9814 17.9342C13.9953 17.8154 14.0521 17.7058 14.1412 17.626C14.2303 17.5462 14.3455 17.5017 14.4651 17.501H15.249C15.3167 17.5007 15.3836 17.5146 15.4456 17.5417C15.5075 17.5688 15.5631 17.6086 15.6088 17.6585C15.6545 17.7084 15.6892 17.7672 15.7107 17.8314C15.7323 17.8955 15.7402 17.9634 15.734 18.0307C15.6115 19.2354 15.0769 20.3609 14.2205 21.217C13.3642 22.0731 12.2386 22.6074 11.0339 22.7295C10.9666 22.7357 10.8987 22.7277 10.8347 22.7061C10.7707 22.6845 10.7119 22.6498 10.6621 22.6041C10.6122 22.5584 10.5725 22.5029 10.5454 22.441C10.5183 22.379 10.5045 22.3122 10.5048 22.2446L10.5042 22.2402Z"
        fill="#FF5C00" />
</svg>