<svg width="88" height="88" viewBox="0 0 88 88" fill="none" xmlns="http://www.w3.org/2000/svg">
    <path
        d="M55.021 4.06683V1.52989C55.0214 1.32421 54.9802 1.12056 54.9 0.931187C54.8197 0.741811 54.702 0.570616 54.5539 0.427884C54.4058 0.285153 54.2304 0.173832 54.0382 0.100608C53.8459 0.0273848 53.6409 -0.00622955 53.4354 0.00178454C45.1936 0.399767 37.3991 3.86764 31.5855 9.72311C25.7718 15.5786 22.3599 23.3977 22.021 31.6421C22.0586 32.7144 22.9248 32.9938 23.4341 32.9938H26.0107C26.403 32.9928 26.7799 32.8414 27.0638 32.5707C27.3477 32.3001 27.517 31.9308 27.5368 31.5391C27.897 24.7455 30.7599 18.3259 35.5733 13.5183C40.3868 8.71074 46.8099 5.85568 53.6039 5.50376C54.6781 5.36701 55.021 4.78034 55.021 4.06683ZM31.8318 33.0038H34.2894C34.6747 33.0016 35.0448 32.8536 35.3254 32.5896C35.606 32.3256 35.7762 31.9651 35.8017 31.5807C36.1449 26.9525 38.1467 22.6037 41.4394 19.3332C44.7321 16.0628 49.0944 14.0904 53.7248 13.7785C54.0887 13.7545 54.4285 13.5882 54.6707 13.3156C54.9129 13.043 55.038 12.686 55.019 12.3218V9.8007C55.0187 9.59085 54.9753 9.38331 54.8914 9.19094C54.8076 8.99857 54.6851 8.82547 54.5316 8.68238C54.3781 8.53929 54.1969 8.42926 53.9991 8.35911C53.8013 8.28896 53.5912 8.26019 53.3819 8.27457C47.3903 8.67119 41.7467 11.2303 37.5006 15.4761C33.2545 19.7218 30.6949 25.3652 30.2977 31.3567C30.2836 31.5662 30.3127 31.7763 30.383 31.9741C30.4534 32.1719 30.5636 32.3531 30.7069 32.5066C30.8501 32.66 31.0234 32.7824 31.2158 32.8663C31.4083 32.9501 31.6159 32.9935 31.8258 32.9938L31.8318 33.0038ZM55.015 18.0854V20.6124C55.015 21.643 54.1192 22.0156 53.6831 22.0672C51.2462 22.365 48.9786 23.4682 47.2404 25.2019C45.5021 26.9355 44.3927 29.2001 44.0884 31.6362C44.0448 32.0099 43.8659 32.3548 43.5855 32.6056C43.305 32.8565 42.9425 32.996 42.5662 32.9978H40.1105C39.898 32.9987 39.6876 32.9552 39.4928 32.8699C39.2981 32.7847 39.1234 32.6596 38.9798 32.5029C38.8363 32.3461 38.7271 32.161 38.6594 31.9595C38.5916 31.758 38.5668 31.5446 38.5864 31.3329C38.9705 27.5464 40.6499 24.0085 43.341 21.3171C46.032 18.6257 49.5696 16.9458 53.3561 16.5612C53.5678 16.5416 53.7812 16.5665 53.9827 16.6342C54.1842 16.702 54.3692 16.8111 54.526 16.9547C54.6828 17.0982 54.8078 17.273 54.8931 17.4677C54.9783 17.6624 55.0219 17.8728 55.021 18.0854H55.015ZM83.9282 54.9502C83.2147 54.9502 82.628 54.6054 82.4893 53.5331C82.1398 46.7375 79.2861 40.312 74.4788 35.4962C69.6714 30.6805 63.2509 27.8156 56.4559 27.4542C56.0642 27.4349 55.6949 27.2657 55.4244 26.9816C55.154 26.6975 55.0032 26.3203 55.0031 25.9281V23.3515C55.0031 22.8421 55.2826 21.976 56.3529 21.9384C64.598 22.2753 72.4186 25.6858 78.2756 31.4988C84.1327 37.3118 87.6021 45.1064 88.0012 53.3488C88.0092 53.5543 87.9756 53.7593 87.9023 53.9516C87.8291 54.1438 87.7178 54.3192 87.5751 54.4673C87.4323 54.6154 87.2611 54.7331 87.0718 54.8134C86.8824 54.8936 86.6787 54.9348 86.4731 54.9344L83.9282 54.9502ZM54.9913 31.7611C54.9916 31.5512 55.035 31.3437 55.1188 31.1513C55.2027 30.9589 55.3251 30.7858 55.4786 30.6427C55.6321 30.4996 55.8134 30.3896 56.0112 30.3195C56.2089 30.2493 56.419 30.2205 56.6284 30.2349C62.6217 30.6287 68.2679 33.1864 72.5164 37.432C76.765 41.6776 79.3265 47.322 79.7244 53.3151C79.7388 53.5245 79.71 53.7345 79.6399 53.9323C79.5697 54.1301 79.4597 54.3113 79.3166 54.4648C79.1735 54.6183 79.0004 54.7408 78.808 54.8246C78.6157 54.9085 78.4081 54.9519 78.1983 54.9522H75.6871C75.3229 54.9712 74.9659 54.8461 74.6933 54.6039C74.4206 54.3617 74.2543 54.0219 74.2303 53.658C73.9175 49.0275 71.9442 44.6654 68.6731 41.3731C65.4019 38.0808 61.0526 36.0795 56.4242 35.7369C56.04 35.7113 55.6797 35.5411 55.416 35.2605C55.1523 34.9799 55.0048 34.6097 55.0031 34.2247L54.9913 31.7611ZM69.9017 54.9502H67.3885C66.3559 54.9502 65.9853 54.0544 65.9318 53.6164C65.6336 51.1798 64.5302 48.9127 62.7966 47.1748C61.063 45.4369 58.7986 44.3278 56.3628 44.0236C55.9891 43.9809 55.644 43.8025 55.393 43.5223C55.142 43.2421 55.0026 42.8796 55.0012 42.5034V40.0358C55.0003 39.8234 55.0438 39.6132 55.1289 39.4186C55.214 39.2241 55.3389 39.0494 55.4955 38.9059C55.652 38.7624 55.8368 38.6532 56.0381 38.5853C56.2393 38.5174 56.4525 38.4923 56.664 38.5117C60.4502 38.8954 63.9878 40.5745 66.6789 43.2653C69.37 45.956 71.0496 49.4933 71.4338 53.2794C71.4534 53.4907 71.4286 53.7037 71.3611 53.9048C71.2935 54.1059 71.1847 54.2906 71.0416 54.4472C70.8985 54.6038 70.7242 54.7287 70.5299 54.814C70.3357 54.8992 70.1257 54.9429 69.9136 54.9423L69.9017 54.9502ZM4.06819 32.9879C4.7817 32.9879 5.36837 33.3308 5.50711 34.403C5.85816 41.1984 8.71336 47.6229 13.5219 52.4373C18.3304 57.2517 24.7515 60.1147 31.5464 60.474C31.9378 60.4943 32.3065 60.6638 32.5768 60.9477C32.847 61.2316 32.9982 61.6082 32.9992 62.0001V64.5767C32.9992 65.0881 32.7197 65.9542 31.6494 65.9899C23.4046 65.653 15.5843 62.2428 9.72734 56.4302C3.87035 50.6176 0.400727 42.8234 0.00115893 34.5814C-0.00685516 34.3759 0.0267592 34.1709 0.0999827 33.9786C0.173206 33.7864 0.284527 33.611 0.427259 33.4629C0.56999 33.3148 0.741186 33.1971 0.930562 33.1168C1.11994 33.0366 1.32358 32.9954 1.52927 32.9958L4.06819 32.9879ZM33.0051 56.1771C33.0048 56.3869 32.9614 56.5945 32.8775 56.7868C32.7937 56.9792 32.6712 57.1523 32.5177 57.2954C32.3642 57.4385 32.183 57.5485 31.9852 57.6187C31.7874 57.6888 31.5774 57.7176 31.368 57.7032C25.376 57.3081 19.7315 54.7501 15.4843 50.505C11.237 46.26 8.67612 40.6168 8.27792 34.625C8.26323 34.4156 8.2918 34.2054 8.36184 34.0075C8.43188 33.8096 8.5419 33.6282 8.68505 33.4747C8.8282 33.3211 9.00141 33.1986 9.19392 33.1149C9.38643 33.0312 9.59411 32.9879 9.80404 32.9879H12.3152C12.6804 32.9689 13.0382 33.0949 13.311 33.3383C13.5838 33.5818 13.7495 33.9231 13.772 34.2881C14.0848 38.9186 16.0581 43.2807 19.3292 46.573C22.6004 49.8652 26.9497 51.8665 31.5781 52.2092C31.9625 52.2343 32.323 52.4044 32.5868 52.6851C32.8506 52.9658 32.998 53.3362 32.9992 53.7214L33.0051 56.1771ZM18.0947 32.9879H20.6138C21.6464 32.9879 22.017 33.8838 22.0705 34.3198C22.3686 36.7566 23.472 39.024 25.2056 40.7622C26.9391 42.5004 29.2036 43.6099 31.6395 43.9146C32.0129 43.9572 32.3577 44.1353 32.6086 44.4151C32.8596 44.6949 32.9992 45.0569 33.0012 45.4328V47.8964C33.002 48.1087 32.9585 48.319 32.8734 48.5135C32.7883 48.7081 32.6634 48.8828 32.5069 49.0263C32.3503 49.1698 32.1655 49.279 31.9642 49.3469C31.763 49.4148 31.5498 49.4398 31.3383 49.4205C27.5519 49.0361 24.0142 47.3565 21.3229 44.6655C18.6315 41.9746 16.9515 38.4371 16.5666 34.6508C16.5472 34.4394 16.5723 34.2264 16.64 34.0253C16.7078 33.8242 16.8168 33.6395 16.9601 33.4829C17.1034 33.3264 17.2778 33.2015 17.4722 33.1163C17.6665 33.031 17.8765 32.9873 18.0887 32.9879H18.0947ZM33.0131 83.9248C33.0131 83.2113 33.3559 82.6246 34.4282 82.4879C41.2212 82.1366 47.6437 79.2829 52.4574 74.4769C57.2711 69.6709 60.1351 63.253 60.4972 56.4605C60.517 56.0687 60.6863 55.6995 60.9702 55.4288C61.2541 55.1582 61.6311 55.0068 62.0233 55.0057H64.5999C65.1093 55.0057 65.9754 55.2852 66.0131 56.3574C65.6747 64.6019 62.2632 72.4212 56.4499 78.2771C50.6366 84.1329 42.8424 87.6013 34.6006 87.9998C34.3951 88.0078 34.1901 87.9742 33.9979 87.9009C33.8056 87.8277 33.6302 87.7164 33.4821 87.5737C33.334 87.4309 33.2163 87.2597 33.136 87.0704C33.0558 86.881 33.0146 86.6773 33.015 86.4717L33.0131 83.9248ZM56.2022 54.9879C56.4121 54.9882 56.6196 55.0316 56.812 55.1155C57.0044 55.1993 57.1775 55.3218 57.3206 55.4753C57.4636 55.6288 57.5737 55.81 57.6438 56.0078C57.714 56.2056 57.7428 56.4157 57.7284 56.625C57.3354 62.6197 54.7776 68.2674 50.5311 72.5168C46.2846 76.7662 40.6386 79.3279 34.6442 79.725C34.4349 79.7394 34.2248 79.7106 34.027 79.6405C33.8292 79.5703 33.648 79.4603 33.4945 79.3172C33.341 79.1741 33.2185 79.001 33.1347 78.8086C33.0509 78.6163 33.0074 78.4087 33.0071 78.1989V75.6877C32.9881 75.3235 33.1132 74.9665 33.3554 74.6939C33.5976 74.4212 33.9374 74.2549 34.3013 74.2309C38.9317 73.9191 43.294 71.9467 46.5867 68.6763C49.8794 65.4058 51.8812 61.0569 52.2244 56.4288C52.2499 56.0444 52.4201 55.6839 52.7007 55.4199C52.9813 55.1559 53.3514 55.0079 53.7367 55.0057L56.2022 54.9879ZM33.0131 69.8964V67.3872C33.0131 66.3565 33.9109 65.9839 34.3469 65.9324C36.7838 65.6346 39.0514 64.5313 40.7897 62.7977C42.528 61.0641 43.6374 58.7995 43.9417 56.3634C43.9852 55.99 44.1638 55.6454 44.4439 55.3946C44.7239 55.1438 45.086 55.0041 45.4619 55.0018H47.9255C48.1381 55.0009 48.3485 55.0444 48.5432 55.1297C48.7379 55.2149 48.9127 55.3399 49.0562 55.4967C49.1997 55.6535 49.3089 55.8386 49.3766 56.0401C49.4444 56.2415 49.4693 56.455 49.4496 56.6666C49.0646 60.4528 47.3845 63.9899 44.6931 66.6806C42.0018 69.3712 38.4641 71.0504 34.6779 71.4344C34.4664 71.4537 34.2532 71.4286 34.052 71.3607C33.8507 71.2928 33.6659 71.1836 33.5093 71.0401C33.3528 70.8966 33.2279 70.722 33.1428 70.5274C33.0577 70.3328 33.0142 70.1226 33.015 69.9102L33.0131 69.8964Z"
        fill="#FF5C00" />
</svg>