<svg width="68" height="28" viewBox="0 0 68 28" fill="none" xmlns="http://www.w3.org/2000/svg">
<path d="M28.4351 8.55492H26.7245V5.52141H32.1894V11.5011C31.4563 12.0467 30.6122 12.4614 29.6347 12.7451C28.6572 13.0288 27.6354 13.1816 26.5913 13.1816C24.4808 13.1816 22.8591 12.6142 21.7262 11.5011C20.5932 10.3663 20.0156 8.77316 20.0156 6.65625C20.0156 4.53933 20.571 2.92437 21.704 1.74588C22.8369 0.567393 24.4142 -0.0218506 26.4135 -0.0218506C27.9908 -0.0218506 29.2793 0.349155 30.2789 1.09117C31.2786 1.83318 31.8562 2.88072 32.0783 4.2338L27.9908 4.58298C27.8797 4.1465 27.702 3.81915 27.4576 3.62273C27.2133 3.42632 26.8578 3.33902 26.3913 3.33902C25.6138 3.33902 25.0584 3.60091 24.703 4.10286C24.3475 4.60481 24.192 5.41229 24.192 6.54713C24.192 7.72562 24.392 8.57675 24.7918 9.07869C25.1917 9.58064 25.8804 9.84253 26.8134 9.84253C27.4798 9.84253 28.0352 9.75523 28.4351 9.55882V8.55492Z" fill="#343843"/>
<path d="M43.208 9.82062C43.008 10.9118 42.5415 11.7629 41.764 12.3085C40.9865 12.876 39.9424 13.1597 38.6317 13.1597C37.0322 13.1597 35.8104 12.745 34.9662 11.9375C34.122 11.1082 33.7 9.92973 33.7 8.35842C33.7 6.7871 34.122 5.54314 34.9884 4.64836C35.8548 3.75359 37.0544 3.31711 38.5872 3.31711C40.0534 3.31711 41.2086 3.73176 42.0306 4.58289C42.8525 5.43402 43.2746 6.59069 43.2746 8.09653V9.03496H37.2988C37.321 9.58055 37.4321 9.97338 37.632 10.2134C37.8319 10.4535 38.1429 10.5845 38.5872 10.5845C39.187 10.5845 39.5647 10.3226 39.7202 9.82062H43.208ZM39.8091 7.17993C39.7868 6.72163 39.6758 6.37245 39.4981 6.17603C39.3203 5.97962 39.0315 5.8705 38.6539 5.8705C37.8319 5.8705 37.3876 6.30698 37.321 7.17993H39.8091Z" fill="#343843"/>
<path d="M51.8497 12.6141C51.0277 12.876 50.1836 13.0288 49.3394 13.0288C48.0287 13.0288 47.1179 12.7451 46.5403 12.1558C45.985 11.5666 45.6962 10.6063 45.6962 9.25326V6.52528H44.1633V3.57906H45.6962V1.17844H49.5393V3.57906H51.4943V6.52528H49.5393V9.03502C49.5393 9.36238 49.6282 9.60244 49.7837 9.75521C49.9392 9.90798 50.1836 9.99527 50.5168 9.99527C50.7834 9.99527 51.0722 9.95162 51.3832 9.88615L51.8497 12.6141Z" fill="#343843"/>
<path d="M27.8353 27.5198V22.8058H24.4364V27.5198H20.3711V14.9711H24.4364V19.2922H27.8353V14.9711H31.9007V27.5198H27.8353Z" fill="#343843"/>
<path d="M33.8555 17.3499V14.9711H37.6764V17.3499H33.8555ZM33.8555 27.5198V18.2446H37.6764V27.5198H33.8555Z" fill="#343843"/>
<path d="M39.4758 27.5197V18.2446H43.2079V19.2703C43.83 18.4847 44.6963 18.0918 45.8071 18.0918C46.1625 18.0918 46.4735 18.1355 46.7846 18.2009L46.3625 21.3218C45.9848 21.2563 45.6294 21.2126 45.2962 21.2126C44.7408 21.2126 44.2743 21.3218 43.941 21.54C43.5412 21.8019 43.3412 22.2384 43.3412 22.8713V27.5416H39.4758V27.5197Z" fill="#343843"/>
<path d="M56.7368 24.4645C56.5368 25.5557 56.0703 26.4068 55.2928 26.9524C54.5153 27.5198 53.4712 27.8035 52.1605 27.8035C50.561 27.8035 49.3392 27.3889 48.495 26.5814C47.6508 25.7521 47.2288 24.5736 47.2288 23.0023C47.2288 21.431 47.6508 20.187 48.5172 19.2922C49.3836 18.3974 50.5832 17.961 52.1161 17.961C53.5822 17.961 54.7374 18.3756 55.5594 19.2268C56.3813 20.0779 56.8034 21.2345 56.8034 22.7404V23.6788H50.8276C50.8498 24.2244 50.9609 24.6172 51.1608 24.8573C51.3607 25.0974 51.6718 25.2283 52.1161 25.2283C52.7159 25.2283 53.0935 24.9664 53.249 24.4645H56.7368ZM53.3157 21.8238C53.2934 21.3655 53.1824 21.0163 53.0046 20.8199C52.8269 20.6235 52.5381 20.5144 52.1605 20.5144C51.3385 20.5144 50.8942 20.9508 50.8276 21.8238H53.3157Z" fill="#343843"/>
<path d="M64.3122 27.5198V26.6032C63.6902 27.4107 62.8238 27.8035 61.7353 27.8035C60.5579 27.8035 59.6471 27.3888 59.0028 26.5595C58.3586 25.7302 58.0254 24.5517 58.0254 23.0241C58.0254 21.4528 58.3808 20.2088 59.0695 19.314C59.7582 18.4192 60.7134 17.9609 61.8908 17.9609C62.3795 17.9609 62.8238 18.0482 63.2237 18.2228C63.6236 18.3974 63.9346 18.6375 64.1567 18.9648V14.9711H67.9777V27.5198H64.3122ZM64.1567 22.7404C64.1567 22.1075 64.0679 21.6492 63.8901 21.3436C63.7124 21.0599 63.4236 20.929 63.046 20.929C62.6461 20.929 62.3351 21.0817 62.1574 21.3873C61.9574 21.6928 61.8686 22.1729 61.8686 22.8277C61.8686 23.4824 61.9574 23.9625 62.1574 24.2899C62.3573 24.5954 62.6461 24.77 63.046 24.77C63.4014 24.77 63.668 24.639 63.8679 24.3553C64.0679 24.0498 64.1567 23.5915 64.1567 22.9804V22.7404Z" fill="#343843"/>
<path d="M6.66449 14.4255H0C0 6.91808 6.19797 0.829224 13.8177 0.829224H14.9285V7.37638H13.8177C9.86344 7.37638 6.66449 10.5408 6.66449 14.4255Z" fill="#2960FF"/>
<path d="M1.08854 27.9998H0.0666504V21.4526H1.08854C5.0428 21.4526 8.26397 18.2882 8.26397 14.4035H14.9285C14.9285 21.9109 8.70827 27.9998 1.08854 27.9998Z" fill="#2960FF"/>
</svg>
