<svg width="16" height="16" viewBox="0 0 16 16" fill="none" xmlns="http://www.w3.org/2000/svg">
<path d="M14.3164 4.20996C13.985 4.37028 13.8464 4.76904 14.0067 5.10026C14.4447 6.00505 14.6667 6.98031 14.6667 8C14.6667 11.6759 11.6759 14.6667 8 14.6667C4.32406 14.6667 1.33333 11.6759 1.33333 8C1.33333 4.32406 4.32406 1.33333 8 1.33333C9.52328 1.33333 10.9543 1.83073 12.1387 2.77165C12.4259 3.00098 12.846 2.95296 13.0754 2.66471C13.3047 2.37663 13.2567 1.95703 12.9683 1.72803C11.5661 0.613607 9.8016 0 8 0C3.58903 0 0 3.58903 0 8C0 12.411 3.58903 16 8 16C12.411 16 16 12.411 16 8C16 6.77767 15.7331 5.60628 15.2067 4.51969C15.0467 4.18766 14.6466 4.04932 14.3164 4.20996Z" fill="#C8CFE2"/>
<path d="M7.9987 2.6665C7.6307 2.6665 7.33203 2.96517 7.33203 3.33317V7.99984C7.33203 8.36784 7.6307 8.6665 7.9987 8.6665H11.332C11.7 8.6665 11.9987 8.36784 11.9987 7.99984C11.9987 7.63183 11.7 7.33317 11.332 7.33317H8.66536V3.33317C8.66536 2.96517 8.3667 2.6665 7.9987 2.6665Z" fill="#C8CFE2"/>
</svg>
